Coordinates
version=1
nRows=7
nColumns=40
inDegrees=yes

Units are S.I. units (second, meters, Newtons, ...)
Angles are in degrees.

endheader
time	pelvis_tilt	pelvis_list	pelvis_rotation	pelvis_tx	pelvis_ty	pelvis_tz	hip_flexion_r	hip_adduction_r	hip_rotation_r	knee_angle_r	knee_angle_r_beta	ankle_angle_r	subtalar_angle_r	mtp_angle_r	hip_flexion_l	hip_adduction_l	hip_rotation_l	knee_angle_l	knee_angle_l_beta	ankle_angle_l	subtalar_angle_l	mtp_angle_l	lumbar_extension	lumbar_bending	lumbar_rotation	arm_flex_r	arm_add_r	arm_rot_r	elbow_flex_r	pro_sup_r	wrist_flex_r	wrist_dev_r	arm_flex_l	arm_add_l	arm_rot_l	elbow_flex_l	pro_sup_l	wrist_flex_l	wrist_dev_l
     40.69250000	     -1.78394993	     -4.95854690	     -0.84969974	      1.09567316	      0.92619765	      0.46090031	     17.10433316	      0.95369186	    -11.27996862	     21.26317788	     21.26317788	      8.05822877	      0.39034855	     -4.84022061	     10.47889154	    -13.18646568	     -5.25011579	     43.55321727	     43.55321727	     12.34038037	    -18.12923523	     -0.90827884	     -9.45044505	      5.77253700	      2.19466664	      0.95088126	    -14.38798530	     -5.68035071	     36.51084474	     45.84766220	      0.00000000	      0.00000000	     10.46646700	    -15.10514959	    -13.77886202	     65.01905095	     47.10018087	      0.00000000	      0.00000000
     40.70571429	     -1.85388037	     -5.15295788	     -0.36850533	      1.09560502	      0.92644099	      0.46325373	     16.59227420	      1.26455783	    -11.80159874	     20.90618031	     20.90618031	      8.18806263	      0.43115159	     -5.17843116	     13.05257742	    -13.62302852	     -3.72215010	     47.90746166	     47.90746166	     12.22368255	    -18.29305577	      3.27286660	     -9.21345121	      6.06506605	      2.28484141	      1.62066526	    -14.87911492	     -4.50579315	     38.57072154	     45.70435652	      0.00000000	      0.00000000	     10.62079702	    -14.51566863	    -13.15770634	     60.86415582	     47.01045341	      0.00000000	      0.00000000
     40.71892857	     -1.85659994	     -5.44556537	      0.07902195	      1.09540791	      0.92661792	      0.46565291	     16.00504385	      1.71730336	    -12.24640462	     20.53231436	     20.53231436	      8.49832579	      0.44354963	     -5.24651478	     15.38972174	    -14.17029218	     -2.41091546	     51.64976247	     51.64976247	     10.85167547	    -18.58859105	      4.01608661	     -9.19952445	      6.32265724	      2.04277602	      3.04704031	    -15.01504695	     -4.45696562	     39.70782537	     45.66762078	      0.00000000	      0.00000000	      9.61890312	    -14.17007329	    -12.73581881	     59.39410258	     46.95164074	      0.00000000	      0.00000000
     40.73214286	     -1.69899945	     -5.51681881	      0.51309525	      1.09507380	      0.92709754	      0.46750122	     15.33986527	      1.89904809	    -12.57081620	     20.31346691	     20.31346691	      8.65406091	      0.34356217	     -5.55095592	     17.56218095	    -14.17807515	     -0.96339364	     55.20199938	     55.20199938	     10.93831131	    -18.59470867	      8.78126919	     -9.30650350	      6.49893695	      2.57308847	      3.74455709	    -15.75060443	     -3.41103022	     42.19704150	     45.52692046	      0.00000000	      0.00000000	     10.06705396	    -13.45311259	    -11.76573378	     55.63784569	     46.83808145	      0.00000000	      0.00000000
     40.74535714	     -1.57397213	     -5.64726768	      0.92541739	      1.09466550	      0.92746026	      0.46937161	     14.71680522	      2.17182402	    -12.84152742	     20.08436140	     20.08436140	      8.91613407	      0.18814859	     -5.61088616	     19.54907405	    -14.31623184	      0.16883071	     58.02218953	     58.02218953	      9.89242154	    -18.72293619	      9.71588448	     -9.41096099	      6.63056361	      2.34318998	      5.31493766	    -15.94096131	     -3.31821060	     43.70349256	     45.47836621	      0.00000000	      0.00000000	      9.24373446	    -13.13716272	    -11.28189082	     53.72467293	     46.76967219	      0.00000000	      0.00000000
     40.75857143	     -1.52790736	     -5.70423235	      1.30171540	      1.09415285	      0.92771929	      0.47109773	     14.17652877	      2.38443111	    -12.98058043	     19.82482090	     19.82482090	      9.19917478	     -0.00116913	     -5.67956000	     21.50372878	    -14.27827043	      1.19969414	     60.32873200	     60.32873200	      9.18752427	    -18.75055908	     10.74217828	     -9.43059645	      6.65452346	      2.26205059	      6.76813455	    -16.22159023	     -3.09017743	     45.30640453	     45.41936103	      0.00000000	      0.00000000	      8.63644710	    -12.67627484	    -10.79933426	     51.37023518	     46.69697509	      0.00000000	      0.00000000
     40.77178571	     -1.48597258	     -5.78796133	      1.69649361	      1.09357373	      0.92797207	      0.47267389	     13.68608501	      2.60357475	    -13.14694608	     19.63820772	     19.63820772	      9.46567556	     -0.17615211	     -5.72578288	     23.33575649	    -14.23758240	      2.12084173	     62.05084708	     62.05084708	      8.56280680	    -18.74757828	     11.19710532	     -9.48729088	      6.71276952	      2.35438370	      8.24778544	    -16.50525617	     -3.01325270	     46.58881150	     45.37881289	      0.00000000	      0.00000000	      7.85439923	    -12.17701908	    -10.45227923	     49.65314142	     46.64020510	      0.00000000	      0.00000000
